<svg xmlns="http://www.w3.org/2000/svg" viewBox="0 0 416 512"><!--!Font Awesome Free 6.7.2 by @fontawesome - https://fontawesome.com License - https://fontawesome.com/license/free Copyright 2025 Fonticons, Inc.--><path d="M272 96c26.5 0 48-21.5 48-48S298.5 0 272 0s-48 21.5-48 48 21.5 48 48 48zM113.7 317.5l-14.8 34.5H32c-17.7 0-32 14.3-32 32s14.3 32 32 32h77.5c19.3 0 36.6-11.4 44.1-29.1l8.8-20.5-10.7-6.3c-17.3-10.2-30.1-25.4-38-42.6zM384 224h-44l-26.1-53.3c-12.5-25.6-35.5-44.2-61.8-50.9l-71.1-21.1c-28.3-6.8-57.8-.6-80.8 17.1l-39.7 30.4c-14 10.8-16.7 30.8-5.9 44.9s30.8 16.7 44.9 5.9l39.7-30.4c7.7-5.9 17.4-8 25.3-6.1l14.7 4.4-37.5 87.4c-12.6 29.5-1.3 64 26.3 80.3l85 50.2-27.5 87.7c-5.3 16.9 4.1 34.8 21 40.1 3.2 1 6.4 1.5 9.6 1.5 13.6 0 26.2-8.8 30.5-22.5l31.6-101.1c5.9-20.8-2.9-43.1-21.6-54.4l-61.2-36.1 31.3-78.3 20.3 41.4c8 16.3 24.9 26.9 43.1 26.9H384c17.7 0 32-14.3 32-32s-14.3-32-32-32z"/></svg>